HIERARCHY
ROOT hips
{
  OFFSET 0 10.6860622 2.3727825e-15
  CHANNELS 6 Xposition Yposition Zposition Yrotation Xrotation Zrotation
  JOINT leftUpperLeg
  {
    OFFSET 0.6642549969 -0.9402397400000004 0
    CHANNELS 3 Yrotation Xrotation Zrotation
    JOINT leftLowerLeg
    {
      OFFSET 0 -3.997221335632195 0
      CHANNELS 3 Yrotation Xrotation Zrotation
      JOINT leftFoot
      {
        OFFSET -0.13777839790000004 -4.6145792000000005 -0.22186036399999998
        CHANNELS 3 Yrotation Xrotation Zrotation
        JOINT leftToes
        {
          OFFSET -0.03777410834999995 -0.9130806927000008 0.85230013
          CHANNELS 3 Yrotation Xrotation Zrotation
          End Site
          {
            OFFSET -0.03777410834999995 -0.9130806927000008 0.85230013
          }
        }
      }
    }
  }
  JOINT rightUpperLeg
  {
    OFFSET -0.6642778626 -0.9402397400000004 0
    CHANNELS 3 Yrotation Xrotation Zrotation
    JOINT rightLowerLeg
    {
      OFFSET 0 -3.997221452859387 0
      CHANNELS 3 Yrotation Xrotation Zrotation
      JOINT rightFoot
      {
        OFFSET 0.1377926176 -4.6145792000000005 -0.22185782299999995
        CHANNELS 3 Yrotation Xrotation Zrotation
        JOINT rightToes
        {
          OFFSET 0.037780746850000047 -0.9130806927000008 0.85230167
          CHANNELS 3 Yrotation Xrotation Zrotation
          End Site
          {
            OFFSET 0.037780746850000047 -0.9130806927000008 0.85230167
          }
        }
      }
    }
  }
  JOINT spine
  {
    OFFSET 0 0.13988381660000015 0
    CHANNELS 3 Yrotation Xrotation Zrotation
    JOINT chest
    {
      OFFSET 0 0.6191039003973773 0
      CHANNELS 3 Yrotation Xrotation Zrotation
      JOINT upperChest
      {
        OFFSET 0 0.9855186130586943 0
        CHANNELS 3 Yrotation Xrotation Zrotation
        JOINT leftShoulder
        {
          OFFSET 0.1807663869 1.5087829790000005 0
          CHANNELS 3 Yrotation Xrotation Zrotation
          JOINT leftUpperArm
          {
            OFFSET 0.5985063006419806 0 0
            CHANNELS 3 Yrotation Xrotation Zrotation
            JOINT leftLowerArm
            {
              OFFSET 2.2993332369501065 0 0
              CHANNELS 3 Yrotation Xrotation Zrotation
              JOINT leftHand
              {
                OFFSET 2.395047042602395 0 0
                CHANNELS 3 Yrotation Xrotation Zrotation
                JOINT leftIndexProximal
                {
                  OFFSET 0.5766295810000004 0.04556643899499946 0.17265095988184
                  CHANNELS 3 Yrotation Xrotation Zrotation
                  JOINT leftIndexIntermediate
                  {
                    OFFSET 0.2957229000000008 -0.019352197700001517 -0.007932640616999987
                    CHANNELS 3 Yrotation Xrotation Zrotation
                    JOINT leftIndexDistal
                    {
                      OFFSET 0.19008243099999922 -0.012484908149998475 -0.002786250786000012
                      CHANNELS 3 Yrotation Xrotation Zrotation
                      End Site
                      {
                        OFFSET 0.19008243099999922 -0.012484908149998475 -0.002786250786000012
                      }
                    }
                  }
                }
                JOINT leftMiddleProximal
                {
                  OFFSET 0.5834975091000001 0.0524350405149987 0.02204081888183999
                  CHANNELS 3 Yrotation Xrotation Zrotation
                  JOINT leftMiddleIntermediate
                  {
                    OFFSET 0.33880573540000003 -0.019871473270000717 -0.00000971183179999946
                    CHANNELS 3 Yrotation Xrotation Zrotation
                    JOINT leftMiddleDistal
                    {
                      OFFSET 0.20676022730000088 -0.012221336379999448 0.0001471936708000235
                      CHANNELS 3 Yrotation Xrotation Zrotation
                      End Site
                      {
                        OFFSET 0.20676022730000088 -0.012221336379999448 0.0001471936708000235
                      }
                    }
                  }
                }
                JOINT leftLittleProximal
                {
                  OFFSET 0.5344154683999995 -0.012880921405001189 -0.24414037221816004
                  CHANNELS 3 Yrotation Xrotation Zrotation
                  JOINT leftLittleIntermediate
                  {
                    OFFSET 0.21758961730000093 -0.011650919939999227 0.011893592810000034
                    CHANNELS 3 Yrotation Xrotation Zrotation
                    JOINT leftLittleDistal
                    {
                      OFFSET 0.1475273964999999 -0.008152365682999818 0.006001092492999946
                      CHANNELS 3 Yrotation Xrotation Zrotation
                      End Site
                      {
                        OFFSET 0.1475273964999999 -0.008152365682999818 0.006001092492999946
                      }
                    }
                  }
                }
                JOINT leftRingProximal
                {
                  OFFSET 0.5799399463000003 0.026911854694997794 -0.12150566991816003
                  CHANNELS 3 Yrotation Xrotation Zrotation
                  JOINT leftRingIntermediate
                  {
                    OFFSET 0.26167887460000006 -0.013480186499999602 0.010996293000000053
                    CHANNELS 3 Yrotation Xrotation Zrotation
                    JOINT leftRingDistal
                    {
                      OFFSET 0.17667108799999987 -0.008990287899999228 0.0055541023999999065
                      CHANNELS 3 Yrotation Xrotation Zrotation
                      End Site
                      {
                        OFFSET 0.17667108799999987 -0.008990287899999228 0.0055541023999999065
                      }
                    }
                  }
                }
                JOINT leftThumbProximal
                {
                  OFFSET 0.11018806699999972 -0.09448718900500053 0.17047963138184
                  CHANNELS 3 Yrotation Xrotation Zrotation
                  JOINT leftThumbIntermediate
                  {
                    OFFSET 0.31062601459999983 -0.08126270900000132 0.15443142000000007
                    CHANNELS 3 Yrotation Xrotation Zrotation
                    JOINT leftThumbDistal
                    {
                      OFFSET 0.21627175790000086 -0.08833193599999878 0.018771167799999988
                      CHANNELS 3 Yrotation Xrotation Zrotation
                      End Site
                      {
                        OFFSET 0.21627175790000086 -0.08833193599999878 0.018771167799999988
                      }
                    }
                  }
                }
              }
            }
          }
        }
        JOINT neck
        {
          OFFSET 0 1.5463305265074576 0
          CHANNELS 3 Yrotation Xrotation Zrotation
          JOINT head
          {
            OFFSET 0 0.8456443600000344 0
            CHANNELS 3 Yrotation Xrotation Zrotation
            JOINT leftEye
            {
              OFFSET 0.30408573140000006 0.5104519199999995 0.1276382305
              CHANNELS 3 Yrotation Xrotation Zrotation
              End Site
              {
                OFFSET 0.30408573140000006 0.5104519199999995 0.1276382305
              }
            }
            JOINT rightEye
            {
              OFFSET -0.30409491089999996 0.5104519199999995 0.1276379445
              CHANNELS 3 Yrotation Xrotation Zrotation
              End Site
              {
                OFFSET -0.30409491089999996 0.5104519199999995 0.1276379445
              }
            }
            JOINT jaw
            {
              OFFSET -3.155239131000001e-7 -0.11984121820000082 0.60178107
              CHANNELS 3 Yrotation Xrotation Zrotation
              End Site
              {
                OFFSET -3.155239131000001e-7 -0.11984121820000082 0.60178107
              }
            }
          }
        }
        JOINT rightShoulder
        {
          OFFSET -0.1807303465 1.5087829790000005 0
          CHANNELS 3 Yrotation Xrotation Zrotation
          JOINT rightUpperArm
          {
            OFFSET -0.5985063796536958 0 0
            CHANNELS 3 Yrotation Xrotation Zrotation
            JOINT rightLowerArm
            {
              OFFSET -2.2993322059002854 0 0
              CHANNELS 3 Yrotation Xrotation Zrotation
              JOINT rightHand
              {
                OFFSET -2.395045314457259 0 0
                CHANNELS 3 Yrotation Xrotation Zrotation
                JOINT rightIndexProximal
                {
                  OFFSET -0.5764487688300002 0.0441371204405987 0.17361932004999997
                  CHANNELS 3 Yrotation Xrotation Zrotation
                  JOINT rightIndexIntermediate
                  {
                    OFFSET -0.29573011380000047 -0.01934826376999843 -0.007698921482999974
                    CHANNELS 3 Yrotation Xrotation Zrotation
                    JOINT rightIndexDistal
                    {
                      OFFSET -0.19008373999999884 -0.012503266380000655 -0.0026365778999999897
                      CHANNELS 3 Yrotation Xrotation Zrotation
                      End Site
                      {
                        OFFSET -0.19008373999999884 -0.012503266380000655 -0.0026365778999999897
                      }
                    }
                  }
                }
                JOINT rightMiddleProximal
                {
                  OFFSET -0.5834852037300005 0.05211639405060153 0.02307162440000001
                  CHANNELS 3 Yrotation Xrotation Zrotation
                  JOINT rightMiddleIntermediate
                  {
                    OFFSET -0.33880114510000003 -0.019952774050000954 0.0002455003561999819
                    CHANNELS 3 Yrotation Xrotation Zrotation
                    JOINT rightMiddleDistal
                    {
                      OFFSET -0.20675694929999955 -0.012273788999999091 0.00030209124000002766
                      CHANNELS 3 Yrotation Xrotation Zrotation
                      End Site
                      {
                        OFFSET -0.20675694929999955 -0.012273788999999091 0.00030209124000002766
                      }
                    }
                  }
                }
                JOINT rightLittleProximal
                {
                  OFFSET -0.5346811737299992 -0.011214256288399227 -0.24363941305000003
                  CHANNELS 3 Yrotation Xrotation Zrotation
                  JOINT rightLittleIntermediate
                  {
                    OFFSET -0.21757715980000092 -0.011771559690000988 0.01201554387
                    CHANNELS 3 Yrotation Xrotation Zrotation
                    JOINT rightLittleDistal
                    {
                      OFFSET -0.1475201849000004 -0.00822055339600003 0.006082065407000015
                      CHANNELS 3 Yrotation Xrotation Zrotation
                      End Site
                      {
                        OFFSET -0.1475201849000004 -0.00822055339600003 0.006082065407000015
                      }
                    }
                  }
                }
                JOINT rightRingProximal
                {
                  OFFSET -0.5800810755299999 0.027657985680600072 -0.12066365025000003
                  CHANNELS 3 Yrotation Xrotation Zrotation
                  JOINT rightRingIntermediate
                  {
                    OFFSET -0.26166445029999974 -0.013623118409999302 0.011164098990000045
                    CHANNELS 3 Yrotation Xrotation Zrotation
                    JOINT rightRingDistal
                    {
                      OFFSET -0.17666387530000027 -0.009072900100000503 0.005668185599999959
                      CHANNELS 3 Yrotation Xrotation Zrotation
                      End Site
                      {
                        OFFSET -0.17666387530000027 -0.009072900100000503 0.005668185599999959
                      }
                    }
                  }
                }
                JOINT rightThumbProximal
                {
                  OFFSET -0.10997596379000074 -0.09577489355940072 0.16989765924999997
                  CHANNELS 3 Yrotation Xrotation Zrotation
                  JOINT rightThumbIntermediate
                  {
                    OFFSET -0.31036620999999986 -0.08229339117999834 0.15440884469999996
                    CHANNELS 3 Yrotation Xrotation Zrotation
                    JOINT rightThumbDistal
                    {
                      OFFSET -0.21631306399999906 -0.08825326400000111 0.018656797720000014
                      CHANNELS 3 Yrotation Xrotation Zrotation
                      End Site
                      {
                        OFFSET -0.21631306399999906 -0.08825326400000111 0.018656797720000014
                      }
                    }
                  }
                }
              }
            }
          }
        }
      }
    }
  }
}
MOTION
Frames: 7
Frame Time: 0.03333333333333333
0 11.682712981546562 0 0 0 0 0 0 -5.826343164929014 -0.3712483961610101 -3.6333298826370974 5.838118207697276 0 0 0 0 0 0 0 0 5.826343164929014 0.3712483961610101 -3.6333298826370974 -5.838118207697276 0 0 0 0 0 0 0 -4.610651315171937 0 0 3.0831277533083026 0 0 0 0 0 1.5275236235667615 0 0 0 0 0 0 0 0 0 0 0 0 0 0 0 0 0 0 0 0 0 0 0 0 0 0 0 0 0 0 0 0 0 0 0 0 0 0 0 0 0 0 0 0 0 0 0 0 0 0 0 0 0 0 0 0 1.5275236235667615 0 0 0 0 0 0 0 0 0 0 0 0 0 0 1.5275236235667615 0 0 0 0 0 0 0 0 0 0 0 0 0 0 0 0 0 0 0 0 0 0 0 0 0 0 0 0 0 0 0 0 0 0 0 0 0 0 0 0 0 0 0 0 0 0 0 0 0 0 0 0 0 0 0
0 -10.026466959239475 0 -90.00243755469731 -40.000634969357264 89.99971150230517 120.73756568369348 -60.55602647377968 -77.88990537139377 0.43765814013977017 -5.5652650590804305 -1.1473124235853323 -7.266165809501124 14.435576345539815 4.610102407479323 0 0 0 27.749091938796436 -72.18923954667915 -52.13229796189559 -13.401836261311232 66.1980115162293 -17.647812223632947 0.13940956564219678 15.137984677566841 16.025237837769236 0 0 0 -6.161129988135743 4.852944539581674 -21.99574597865721 -14.285362128354452 7.397792394053904 -26.66343257815056 0 0 0 -27.258454263792153 6.483541221724651 -20.87583167017783 29.54985715750998 -41.03768159864281 -2.3440321946762355 -39.390367285163734 6.970844762083501 5.035721059068262 -21.60767985438241 -59.64620581232243 1.8580220768734477 0 0 0 0 0 0 0 0 0 0 0 0 0 0 0 0 0 0 0 0 0 0 0 0 0 0 0 0 0 0 0 0 0 0 0 0 0 0 0 0 0 0 0 0 0 7.076721762697236 4.350240225668985 -26.856300131021914 29.28407217594758 -1.1076021936346439 -1.5924961143127196 0 0 0 0 0 0 0 0 0 -33.5178261502164 5.211935472419749 -1.3477627740546583 33.08313392427904 28.693987396213732 13.764360508554752 49.62151918065765 16.25447035015536 -45.454169427888125 4.089509237116995 10.260402770401289 6.158084216636952 0 0 0 0 0 0 0 0 0 0 0 0 0 0 0 0 0 0 0 0 0 0 0 0 0 0 0 0 0 0 0 0 0 0 0 0 0 0 0 0 0 0 0 0 0
0 -10.026466959239475 0 -90.61103459579714 -40.000621594966105 90.00032375672419 120.92111053893494 -60.48809079370612 -77.9862268763435 0.4376581133337681 -5.5652650590804305 -1.1473119947627874 -7.882158889472482 14.431084601869497 4.562480556763283 0 0 0 25.888347636596084 -71.79233346445712 -50.07783781861526 -13.304661329537753 66.06398918874343 -17.52727775099894 0.019967562368298726 15.148720583816655 16.071633555034918 0 0 0 -6.280810894235053 5.320417522916906 -21.69713369918635 -14.337618294485186 7.746662228425099 -26.856614496314776 0 0 0 -27.258451161899398 6.483541651359275 -20.87583167017783 29.530112308994024 -40.02571656263735 -2.3214923516014996 -39.998260771439924 6.970809066618976 5.03574046373802 -21.607678610061114 -59.64620581232243 1.8580210134472368 0 0 0 0 0 0 0 0 0 0 0 0 0 0 0 0 0 0 0 0 0 0 0 0 0 0 0 0 0 0 0 0 0 0 0 0 0 0 0 0 0 0 0 0 0 7.110005394042977 4.071419206223301 -26.785398200457298 29.30833249909498 -1.3126258481723625 -1.5894579989383177 0 0 0 0 0 0 0 0 0 -33.40417366353221 5.294262307117225 -1.2780950132415836 33.08313392427904 28.693987396213732 13.764360508554752 49.44933034463908 16.08972831975381 -45.34050434072369 4.024594545513777 9.975749052286401 5.705096619742398 0 0 0 0 0 0 0 0 0 0 0 0 0 0 0 0 0 0 0 0 0 0 0 0 0 0 0 0 0 0 0 0 0 0 0 0 0 0 0 0 0 0 0 0 0
0 -10.026466959239475 0 -91.21963146673647 -40.000603762448634 90.00093577340897 121.10404180558018 -60.420013473651814 -78.08190425408706 0.4376580597217639 -5.5652650590804305 -1.1473114587346063 -8.498135090974078 14.426096624505139 4.514912160059171 0 0 0 24.112566910338806 -71.37548230702897 -48.108125278960955 -13.208686623932168 65.92988231092531 -17.40793380764005 -0.0994714768920005 15.159549028412801 16.118009594533202 0 0 0 -6.398120671852352 5.789363290300523 -21.400564419224494 -14.39110601969905 8.095354736823952 -27.050281821204912 0 0 0 -27.258449634205302 6.483541651359275 -20.875830064453027 29.51116628685279 -39.013746448106005 -2.299727360224074 -40.60615602794031 6.97077337115717 5.0357605988108 -21.60767612141893 -59.6461990542832 1.8580199500212762 0 0 0 0 0 0 0 0 0 0 0 0 0 0 0 0 0 0 0 0 0 0 0 0 0 0 0 0 0 0 0 0 0 0 0 0 0 0 0 0 0 0 0 0 0 7.142931518540676 3.792557829850398 -26.714679484520815 29.33258499366597 -1.517650621043167 -1.5865063507929666 0 0 0 0 0 0 0 0 0 -33.29040269053083 5.376451749534821 -1.2082539190131567 33.08313392427904 28.693987396213732 13.764360508554752 49.2769414278426 15.9253145810512 -45.22641940886369 3.962020756712654 9.690598989575694 5.252826210199402 0 0 0 0 0 0 0 0 0 0 0 0 0 0 0 0 0 0 0 0 0 0 0 0 0 0 0 0 0 0 0 0 0 0 0 0 0 0 0 0 0 0 0 0 0
0 -10.026466959239475 0 -92.43907834588117 -40.000541348674176 90.00219894256293 121.46807165816799 -60.28340262932443 -78.27133955915252 0.4376580329157619 -5.565265916897505 -1.1473124235853323 -9.732251474851912 14.414615356241343 4.419789073968905 0 0 0 20.799363663113724 -70.48450728366942 -44.40523426252203 -13.020245333240666 65.66140897532732 -17.172709637648712 -0.3383646636427456 15.18148536047347 16.21070156784356 0 0 0 -6.626089138836497 6.729696352884137 -20.807260140088513 -14.501897986877495 8.792733716674187 -27.439452809530366 0 0 0 -27.258454263792153 6.483541221724651 -20.87583167017783 29.475317890305618 -36.979401801363025 -2.258137256680373 -41.82418014534728 6.970704560636061 5.035801978569107 -21.60767985438241 -59.64620581232243 1.8580220768734477 0 0 0 0 0 0 0 0 0 0 0 0 0 0 0 0 0 0 0 0 0 0 0 0 0 0 0 0 0 0 0 0 0 0 0 0 0 0 0 0 0 0 0 0 0 7.2078330819930025 3.2337148271087104 -26.573524254116123 29.38109852829065 -1.9280724942816811 -1.5808564888510332 0 0 0 0 0 0 0 0 0 -33.06246851123319 5.540433065072801 -1.0680364202415358 33.08313392427904 28.693987396213732 13.764360508554752 48.931437444383675 15.59735698443254 -44.99689863952597 3.8437206458421964 9.118099250193787 4.349108593465214 0 0 0 0 0 0 0 0 0 0 0 0 0 0 0 0 0 0 0 0 0 0 0 0 0 0 0 0 0 0 0 0 0 0 0 0 0 0 0 0 0 0 0 0 0
0 -10.026466959239475 0 -93.04975682024528 -40.00050568368581 90.00280960616911 121.6492037765721 -60.21485706494089 -78.36512156114212 0.4376580597217639 -5.565265487988968 -1.1473119947627874 -10.350255282219507 14.408120379786332 4.372254286901102 0 0 0 19.258430456714333 -70.01282404697184 -42.6685829136995 -12.927740995172824 65.52703549329749 -17.056795236235313 -0.45781603250391906 15.192595047140651 16.257020378428148 0 0 0 -6.736701956417139 7.200967333540164 -20.51050397899416 -14.559208921480545 9.141377738476889 -27.63495498270778 0 0 0 -27.258451161899398 6.483541651359275 -20.87583167017783 29.458349989425574 -35.957624829541295 -2.238252039792216 -42.43415337019311 6.970669725313602 5.035822970446966 -21.60767985438241 -59.64620581232243 1.8580220768734477 0 0 0 0 0 0 0 0 0 0 0 0 0 0 0 0 0 0 0 0 0 0 0 0 0 0 0 0 0 0 0 0 0 0 0 0 0 0 0 0 0 0 0 0 0 7.23981027420478 2.9537487993345164 -26.50309887720227 29.40536462083442 -2.133463941039741 -1.578158845916184 0 0 0 0 0 0 0 0 0 -32.94832205510613 5.622223020574918 -0.9976605358142234 33.08313016814671 28.693987396213732 13.764359582250181 48.75832077831068 15.43382321286944 -44.881467462074966 3.7880055265527433 8.830830526718476 3.8976931358357154 0 0 0 0 0 0 0 0 0 0 0 0 0 0 0 0 0 0 0 0 0 0 0 0 0 0 0 0 0 0 0 0 0 0 0 0 0 0 0 0 0 0 0 0 0
0 -10.026466959239475 0 -93.66043517555973 -40.00046556059617 90.0034197352452 121.82973193842946 -60.146173192838475 -78.45827290175707 0.4376580597217639 -5.5652650590804305 -1.1473114587346063 -10.968234940430921 14.401129323752434 4.324796170375179 0 0 0 17.7936280280283 -69.52591953281957 -41.00777235373725 -12.836362719532612 65.39257989858609 -16.94199474189734 -0.5772644037920704 15.203799101272143 16.303318180381748 0 0 0 -6.844997892325445 7.673655126336905 -20.21566424399285 -14.617783031656241 9.489825929910443 -27.831006411864017 0 0 0 -27.258451161899398 6.483541651359275 -20.875830064453027 29.442027314634974 -34.93583926159113 -2.218986746665997 -43.04413013919081 6.970635320059393 5.035843660317802 -21.607678283599057 -59.64620581232243 1.8580220768734477 0 0 0 0 0 0 0 0 0 0 0 0 0 0 0 0 0 0 0 0 0 0 0 0 0 0 0 0 0 0 0 0 0 0 0 0 0 0 0 0 0 0 0 0 0 7.2714352961118935 2.673743725537061 -26.432845044062464 29.429626831486072 -2.33885675852068 -1.5755478664826954 0 0 0 0 0 0 0 0 0 -32.83406022443102 5.703873030526341 -0.9271111781076489 33.08313016814671 28.69398544961776 13.764359582250181 48.58500050552354 15.270627068501009 -44.76562047243992 3.7346234774601483 8.543137017158632 3.4469064164433165 0 0 0 0 0 0 0 0 0 0 0 0 0 0 0 0 0 0 0 0 0 0 0 0 0 0 0 0 0 0 0 0 0 0 0 0 0 0 0 0 0 0 0 0 0
